<svg xmlns="http://www.w3.org/2000/svg" width="62" height="62" viewBox="0 0 62 62">
  <g id="Group_12656" data-name="Group 12656" transform="translate(13522 18496)">
    <rect id="Rectangle_1770" data-name="Rectangle 1770" width="62" height="62" transform="translate(-13522 -18496)" fill="rgba(255,255,255,0)"/>
    <g id="help" transform="translate(-13517 -18491)">
      <path id="Path_12619" data-name="Path 12619" d="M51.887,35.115A16.81,16.81,0,0,0,39.6,18.953,19.812,19.812,0,1,0,2.747,29.883L.073,39.551l9.669-2.674A19.739,19.739,0,0,0,18.952,39.6a16.777,16.777,0,0,0,24.7,9.951l8.165,2.258-2.258-8.165a16.712,16.712,0,0,0,2.332-8.534ZM10.222,33.59l-5.788,1.6,1.6-5.788-.365-.571a16.766,16.766,0,1,1,5.123,5.123ZM47.453,47.453l-4.3-1.188-.574.373A13.737,13.737,0,0,1,22.1,39.492a19.85,19.85,0,0,0,17.4-17.4,13.737,13.737,0,0,1,7.146,20.489l-.373.574Zm0,0" fill="#dbb979"/>
      <path id="Path_12620" data-name="Path 12620" d="M180.5,271h2.988v2.988H180.5Zm0,0" transform="translate(-162.188 -243.507)" fill="#dbb979"/>
      <path id="Path_12621" data-name="Path 12621" d="M144.465,95.977a2.958,2.958,0,0,1-.973,2.206l-3.51,3.212v3.646h2.988v-2.33l2.539-2.324a5.976,5.976,0,1,0-10.01-4.41h2.988a2.988,2.988,0,0,1,5.977,0Zm0,0" transform="translate(-121.696 -80.814)" fill="#dbb979"/>
    </g>
  </g>
</svg>
