<svg xmlns="http://www.w3.org/2000/svg" width="21.094" height="21.094" viewBox="0 0 21.094 21.094"><path d="M176.459,41.146a.46.46,0,0,0,.459-.459v-.229a.459.459,0,0,0-.917,0v.229A.46.46,0,0,0,176.459,41.146Z" transform="translate(-165.912 -37.707)" fill="#444"/><path d="M176.459,308a.46.46,0,0,0-.459.459v.229a.459.459,0,0,0,.917,0v-.229A.46.46,0,0,0,176.459,308Z" transform="translate(-165.912 -290.345)" fill="#444"/><path d="M40.688,176h-.229a.459.459,0,0,0,0,.917h.229a.459.459,0,0,0,0-.917Z" transform="translate(-37.707 -165.912)" fill="#444"/><path d="M308.688,176h-.229a.459.459,0,0,0,0,.917h.229a.459.459,0,0,0,0-.917Z" transform="translate(-290.345 -165.912)" fill="#444"/><path d="M80.78,80.138a.454.454,0,0,0-.642.642l.16.16a.443.443,0,0,0,.642,0,.443.443,0,0,0,0-.642Z" transform="translate(-75.414 -75.414)" fill="#444"/><path d="M80.3,269.338l-.16.161a.443.443,0,0,0,0,.642.443.443,0,0,0,.642,0l.16-.16a.454.454,0,1,0-.642-.642Z" transform="translate(-75.414 -253.769)" fill="#444"/><path d="M269.5,80.138l-.161.16a.443.443,0,0,0,0,.642.443.443,0,0,0,.642,0l.16-.16a.454.454,0,0,0-.642-.642Z" transform="translate(-253.769 -75.414)" fill="#444"/><path d="M176.917,104.631v-4.173a.459.459,0,0,0-.917,0v4.356a.453.453,0,0,0,.138.321l5.021,5.021a.443.443,0,0,0,.642,0,.443.443,0,0,0,0-.642Z" transform="translate(-165.912 -94.268)" fill="#444"/><path d="M10.547,0A10.547,10.547,0,1,0,21.094,10.547,10.548,10.548,0,0,0,10.547,0Zm0,20.177a9.63,9.63,0,1,1,9.63-9.63A9.629,9.629,0,0,1,10.547,20.177Z" fill="#444"/></svg>