<svg xmlns="http://www.w3.org/2000/svg" width="62" height="62" viewBox="0 0 62 62">
  <g id="Group_12658" data-name="Group 12658" transform="translate(13436 18411)">
    <rect id="Rectangle_1772" data-name="Rectangle 1772" width="62" height="62" transform="translate(-13436 -18411)" fill="rgba(255,255,255,0)"/>
    <g id="dumbell" transform="translate(-13437 -18421)">
      <path id="Path_12607" data-name="Path 12607" d="M59,30H58V27a3,3,0,0,0-4-2.82V23a3,3,0,0,0-3-3H49a3,3,0,0,0-3,3v7H42V28a4,4,0,0,0-4-4H28a4,4,0,0,0-3.92,3.2A3,3,0,0,0,20,30H18V23a3,3,0,0,0-3-3H13a3,3,0,0,0-3,3v1.18A3,3,0,0,0,6,27v3H5a3,3,0,0,0,0,6H6v3a3,3,0,0,0,4,2.82V43a3,3,0,0,0,3,3h1a1,1,0,0,0,0-2H13a1,1,0,0,1-1-1V23a1,1,0,0,1,1-1h2a1,1,0,0,1,1,1V43a1,1,0,0,0,2,0V36h2.42A5,5,0,0,0,25,39h.26A7,7,0,0,0,27,40.74v2a22.34,22.34,0,0,1-1.44,7.92A24.66,24.66,0,0,0,24,59.27V61a1,1,0,0,0,2,0V59.27a22.34,22.34,0,0,1,1.44-7.92A24.66,24.66,0,0,0,29,42.73V40.19a1,1,0,0,0-.5-.86,5.1,5.1,0,0,1-1.83-1.83,1,1,0,0,0-.86-.5H25a3,3,0,0,1-3-3V30a1,1,0,0,1,2,0v3a1,1,0,0,0,2,0V28a2,2,0,0,1,2-2H38a2,2,0,0,1,2,2v7a5,5,0,0,1-2.5,4.33,1,1,0,0,0-.5.86v2.54a24.66,24.66,0,0,0,1.56,8.62A22.34,22.34,0,0,1,40,59.27V61a1,1,0,0,0,2,0V59.27a24.66,24.66,0,0,0-1.56-8.62A22.34,22.34,0,0,1,39,42.73v-2A7,7,0,0,0,41.92,36H46v7a3,3,0,0,0,3,3h1a1,1,0,0,0,0-2H49a1,1,0,0,1-1-1V23a1,1,0,0,1,1-1h2a1,1,0,0,1,1,1V43a1,1,0,0,0,2,0V27a1,1,0,0,1,2,0V39a1,1,0,0,0,2,0V36h1a3,3,0,1,0,0-6ZM5,34a1,1,0,0,1,0-2H6v2Zm4,6a1,1,0,0,1-1-1V27a1,1,0,0,1,2,0V39A1,1,0,0,1,9,40Zm9-6V32h2v2Zm24,0V32h4v2Zm17,0H58V32h1a1,1,0,0,1,0,2Z" fill="#dbb979"/>
      <path id="Path_12608" data-name="Path 12608" d="M38,29a1,1,0,0,0-1-1H29a1,1,0,0,0,0,2h8A1,1,0,0,0,38,29Z" fill="#dbb979"/>
    </g>
  </g>
</svg>
