<svg xmlns="http://www.w3.org/2000/svg" width="62" height="62" viewBox="0 0 62 62">
  <g id="Group_12657" data-name="Group 12657" transform="translate(13438 18496)">
    <rect id="Rectangle_1771" data-name="Rectangle 1771" width="62" height="62" transform="translate(-13438 -18496)" fill="rgba(255,255,255,0)"/>
    <g id="_028-telephone-2" data-name="028-telephone-2" transform="translate(-13434 -18492)">
      <g id="Group_2066" data-name="Group 2066" transform="translate(0 2.667)">
        <g id="Group_2065" data-name="Group 2065">
          <path id="Path_3875" data-name="Path 3875" d="M49.755,64.165,43.1,57.281l-.019-.019a4.72,4.72,0,0,0-6.68,0L33.369,60.3a3.575,3.575,0,0,1-5.06,0l0,0L17.747,49.984a3.578,3.578,0,0,1,0-5.062l3.036-3.037a4.731,4.731,0,0,0,0-6.682L14.1,28.52a4.728,4.728,0,0,0-6.68,0L5.2,30.748l-.2.2a17.032,17.032,0,0,0,0,24.1L23.248,73.056a17.019,17.019,0,0,0,24.065.023c.037-.034,2.4-2.208,2.432-2.243A4.732,4.732,0,0,0,49.755,64.165ZM9.65,30.748a1.576,1.576,0,0,1,2.227,0l6.68,6.682a1.574,1.574,0,0,1,0,2.227l-1.113,1.114L8.537,31.861Zm15.823,40.08L7.221,52.819a13.883,13.883,0,0,1-.869-18.688l8.875,8.878a6.739,6.739,0,0,0,.295,9.2L26.084,62.528a6.719,6.719,0,0,0,9.2.291L44.156,71.7A13.838,13.838,0,0,1,25.474,70.827ZM47.537,68.59l-1.058.975L37.519,60.6l1.113-1.114a1.573,1.573,0,0,1,2.219-.008l6.667,6.9A1.577,1.577,0,0,1,47.537,68.59Z" transform="translate(-0.002 -27.139)" fill="#dbb979"/>
        </g>
      </g>
      <g id="Group_2068" data-name="Group 2068" transform="translate(27.035 0)">
        <g id="Group_2067" data-name="Group 2067">
          <path id="Path_3876" data-name="Path 3876" d="M243.5.02a1.475,1.475,0,0,0,0,2.95,22.147,22.147,0,0,1,22.121,22.122,1.475,1.475,0,1,0,2.949,0A25.057,25.057,0,0,0,243.5.02Z" transform="translate(-242.021 -0.02)" fill="#dbb979"/>
        </g>
      </g>
      <g id="Group_2070" data-name="Group 2070" transform="translate(27.035 5.899)">
        <g id="Group_2069" data-name="Group 2069">
          <path id="Path_3877" data-name="Path 3877" d="M243.5,60.015a1.475,1.475,0,0,0,0,2.95,16.241,16.241,0,0,1,16.222,16.223,1.475,1.475,0,1,0,2.95,0A19.194,19.194,0,0,0,243.5,60.015Z" transform="translate(-242.021 -60.015)" fill="#dbb979"/>
        </g>
      </g>
      <g id="Group_2072" data-name="Group 2072" transform="translate(25.961 12.872)">
        <g id="Group_2071" data-name="Group 2071">
          <path id="Path_3878" data-name="Path 3878" d="M243.5,120.011a1.475,1.475,0,0,0,0,2.95,10.335,10.335,0,0,1,10.323,10.324,1.475,1.475,0,1,0,2.949,0A13.288,13.288,0,0,0,243.5,120.011Z" transform="translate(-242.021 -120.011)" fill="#dbb979"/>
        </g>
      </g>
      <g id="Group_2074" data-name="Group 2074" transform="translate(25.654 19.079)">
        <g id="Group_2073" data-name="Group 2073">
          <path id="Path_3879" data-name="Path 3879" d="M243.5,180.006a1.475,1.475,0,0,0,0,2.95,4.429,4.429,0,0,1,4.424,4.424,1.475,1.475,0,1,0,2.949,0A7.382,7.382,0,0,0,243.5,180.006Z" transform="translate(-242.021 -180.006)" fill="#dbb979"/>
        </g>
      </g>
    </g>
  </g>
</svg>
