<svg xmlns="http://www.w3.org/2000/svg" xmlns:xlink="http://www.w3.org/1999/xlink" width="60" height="60" viewBox="0 0 60 60">
  <defs>
    <clipPath id="clip-path">
      <rect id="Rectangle_1538" data-name="Rectangle 1538" width="60" height="60" transform="translate(481.154 4216.154)" fill="#fff" stroke="#707070" stroke-width="1"/>
    </clipPath>
  </defs>
  <g id="Bist_du" data-name="Bist du" transform="translate(-481.154 -4216.154)" clip-path="url(#clip-path)">
    <g id="exam" transform="translate(481.029 4218.433)">
      <g id="Group_12460" data-name="Group 12460" transform="translate(0 0)">
        <path id="Path_12719" data-name="Path 12719" d="M12.574,13.883a1.174,1.174,0,1,0-.635,1.534A1.185,1.185,0,0,0,12.574,13.883Z" transform="translate(-5.06 -8.859)" fill="#dbb979"/>
        <path id="Path_12720" data-name="Path 12720" d="M20.459,13.884a1.174,1.174,0,1,0-.635,1.533A1.184,1.184,0,0,0,20.459,13.884Z" transform="translate(-8.928 -8.859)" fill="#dbb979"/>
        <path id="Path_12721" data-name="Path 12721" d="M28.8,13.885a1.174,1.174,0,1,0-.635,1.533A1.185,1.185,0,0,0,28.8,13.885Z" transform="translate(-13.021 -8.859)" fill="#dbb979"/>
        <path id="Path_12722" data-name="Path 12722" d="M59.784,54.151l-5.2-5.2,4.667-1.446a1.174,1.174,0,0,0,.009-2.241l-6.122-1.949V34.765a1.174,1.174,0,1,0-2.349,0V42.57l-9.83-3.129a1.186,1.186,0,0,0-1.476,1.475l3.276,10.29H5.62a3.275,3.275,0,0,1-3.271-3.271V15.665H50.792v8.759a1.174,1.174,0,1,0,2.349,0V10.337a5.626,5.626,0,0,0-5.619-5.619H5.62A5.626,5.626,0,0,0,0,10.337v37.6a5.626,5.626,0,0,0,5.62,5.62H43.51l1.8,5.662a1.174,1.174,0,0,0,2.238,0l1.508-4.755,5.207,5.207a1.174,1.174,0,0,0,1.661,0l3.857-3.857A1.181,1.181,0,0,0,59.784,54.151ZM2.349,10.337a3.274,3.274,0,0,1,3.27-3.27h41.9a3.274,3.274,0,0,1,3.27,3.27v2.98H2.349ZM55.1,57.178l-5.743-5.743a1.186,1.186,0,0,0-1.95.475l-.974,3.073L42.414,42.368l12.574,4-2.955.915a1.186,1.186,0,0,0-.483,1.952l5.743,5.743Z" transform="translate(0 -4.718)" fill="#dbb979"/>
        <path id="Path_12723" data-name="Path 12723" d="M19.266,30.929a7.1,7.1,0,1,0,6.009,8.455,1.174,1.174,0,1,0-2.3-.467,4.752,4.752,0,1,1-4.656-5.7,4.835,4.835,0,0,1,.637.044,1.174,1.174,0,0,0,.311-2.328Z" transform="translate(-5.501 -17.542)" fill="#dbb979"/>
        <path id="Path_12724" data-name="Path 12724" d="M18.318,77.36a7.1,7.1,0,1,0-7.1-7.1A7.109,7.109,0,0,0,18.318,77.36Zm0-11.853a4.752,4.752,0,1,1-4.752,4.752A4.757,4.757,0,0,1,18.318,65.508Z" transform="translate(-5.501 -33.381)" fill="#dbb979"/>
        <path id="Path_12725" data-name="Path 12725" d="M64.94,36.657H45.781a1.174,1.174,0,0,0,0,2.349H64.94a1.174,1.174,0,0,0,0-2.349Z" transform="translate(-21.878 -20.383)" fill="#dbb979"/>
        <path id="Path_12726" data-name="Path 12726" d="M66.114,48.9a1.174,1.174,0,0,0-1.174-1.174H45.781a1.174,1.174,0,1,0,0,2.349H64.94A1.174,1.174,0,0,0,66.114,48.9Z" transform="translate(-21.878 -25.813)" fill="#dbb979"/>
        <path id="Path_12727" data-name="Path 12727" d="M45.781,71.75H56.595a1.174,1.174,0,1,0,0-2.349H45.781a1.174,1.174,0,1,0,0,2.349Z" transform="translate(-21.878 -36.443)" fill="#dbb979"/>
        <path id="Path_12728" data-name="Path 12728" d="M45.781,82.823H57.77a1.174,1.174,0,1,0,0-2.349H45.781a1.174,1.174,0,1,0,0,2.349Z" transform="translate(-21.878 -41.873)" fill="#dbb979"/>
        <path id="Path_12729" data-name="Path 12729" d="M21.475,37.725a1.174,1.174,0,0,0-1.661,1.661l1.8,1.8a1.175,1.175,0,0,0,1.661,0l5.706-5.706A1.174,1.174,0,0,0,27.32,33.82l-4.875,4.875Z" transform="translate(-9.55 -18.822)" fill="#dbb979"/>
        <path id="Path_12730" data-name="Path 12730" d="M101.833,51.742a1.174,1.174,0,1,0-.11,1.445,1.181,1.181,0,0,0,.11-1.445Z" transform="translate(-48.891 -27.526)" fill="#dbb979"/>
      </g>
    </g>
  </g>
</svg>
