<svg xmlns="http://www.w3.org/2000/svg" width="132.991" height="310.585" viewBox="0 0 132.991 310.585"><g transform="translate(6996 8801)"><path d="M474,367.224h0V56.639c4.785,23.991,39.676,41.453,54.455,47.847a113.542,113.542,0,0,1-6.763,217.984c-7.738,3.719-18.97,9.785-28.532,17.565C482.285,348.885,475.839,358.032,474,367.224Z" transform="translate(-7470 -8857.639)" fill="#dbb979"/><path d="M0,0V155H132.988q.016-2.182-.052-4.379A113.542,113.542,0,0,0,47.692,44.168C39.954,40.45,28.722,34.384,19.16,26.6,8.516,17.941,2.115,9,.123,0Z" transform="translate(-6996 -8801)" fill="#fff"/></g></svg>