<svg xmlns="http://www.w3.org/2000/svg" xmlns:xlink="http://www.w3.org/1999/xlink" width="1640" height="603" viewBox="0 0 1640 603">
  <defs>
    <clipPath id="clip-path">
      <rect id="Rectangle_1515" data-name="Rectangle 1515" width="1640" height="603" rx="115" transform="translate(140 7126)" fill="#dbb979" stroke="#707070" stroke-width="1"/>
    </clipPath>
  </defs>
  <g id="Mask_Group_3" data-name="Mask Group 3" transform="translate(-140 -7126)" clip-path="url(#clip-path)">
    <g id="Group_12436" data-name="Group 12436" transform="translate(505.43 190.018) rotate(3)">
      <path id="Path_12682" data-name="Path 12682" d="M-13437.848-15994.473s-120.186,413.744,378.145,282.244,888.2-323.939,1140.3-272.621,422.113,519.586,671.279,407.328,592.133-373.652,864.75-335.164" transform="translate(13338 23195.973)" fill="none" stroke="#fff" stroke-width="5" opacity="0.08"/>
      <path id="Path_12683" data-name="Path 12683" d="M-13437.848-15994.473s-120.186,413.744,378.145,282.244,888.2-323.939,1140.3-272.621,422.113,519.586,671.279,407.328,592.133-373.652,864.75-335.164" transform="translate(13338 23302.684)" fill="none" stroke="#fff" stroke-width="5" opacity="0.08"/>
      <path id="Path_12684" data-name="Path 12684" d="M-13437.848-15994.473s-120.186,413.744,378.145,282.244,888.2-323.939,1140.3-272.621,422.113,519.586,671.279,407.328,592.133-373.652,864.75-335.164" transform="translate(13338 23249.328)" fill="none" stroke="#fff" stroke-width="5" opacity="0.08"/>
      <path id="Path_12685" data-name="Path 12685" d="M-13437.848-15994.473s-120.186,413.744,378.145,282.244,888.2-323.939,1140.3-272.621,422.113,519.586,671.279,407.328,592.133-373.652,864.75-335.164" transform="translate(13338 23356.039)" fill="none" stroke="#fff" stroke-width="5" opacity="0.08"/>
      <path id="Path_12686" data-name="Path 12686" d="M-13437.848-15994.473s-120.186,413.744,378.145,282.244,888.2-323.939,1140.3-272.621,422.113,519.586,671.279,407.328,592.133-373.652,864.75-335.164" transform="translate(13338 23222.65)" fill="none" stroke="#fff" stroke-width="5" opacity="0.08"/>
      <path id="Path_12687" data-name="Path 12687" d="M-13437.848-15994.473s-120.186,413.744,378.145,282.244,888.2-323.939,1140.3-272.621,422.113,519.586,671.279,407.328,592.133-373.652,864.75-335.164" transform="translate(13338 23329.361)" fill="none" stroke="#fff" stroke-width="5" opacity="0.08"/>
      <path id="Path_12688" data-name="Path 12688" d="M-13437.848-15994.473s-120.186,413.744,378.145,282.244,888.2-323.939,1140.3-272.621,422.113,519.586,671.279,407.328,592.133-373.652,864.75-335.164" transform="translate(13338 23276.006)" fill="none" stroke="#fff" stroke-width="5" opacity="0.08"/>
      <path id="Path_12689" data-name="Path 12689" d="M-13437.848-15994.473s-120.186,413.744,378.145,282.244,888.2-323.939,1140.3-272.621,422.113,519.586,671.279,407.328,592.133-373.652,864.75-335.164" transform="translate(13338 23382.717)" fill="none" stroke="#fff" stroke-width="5" opacity="0.08"/>
      <path id="Path_12690" data-name="Path 12690" d="M-13437.848-15994.473s-120.186,413.744,378.145,282.244,888.2-323.939,1140.3-272.621,422.113,519.586,671.279,407.328,592.133-373.652,864.75-335.164" transform="translate(13338 23209.311)" fill="none" stroke="#fff" stroke-width="5" opacity="0.08"/>
      <path id="Path_12691" data-name="Path 12691" d="M-13437.848-15994.473s-120.186,413.744,378.145,282.244,888.2-323.939,1140.3-272.621,422.113,519.586,671.279,407.328,592.133-373.652,864.75-335.164" transform="translate(13338 23316.021)" fill="none" stroke="#fff" stroke-width="5" opacity="0.08"/>
      <path id="Path_12692" data-name="Path 12692" d="M-13437.848-15994.473s-120.186,413.744,378.145,282.244,888.2-323.939,1140.3-272.621,422.113,519.586,671.279,407.328,592.133-373.652,864.75-335.164" transform="translate(13338 23262.666)" fill="none" stroke="#fff" stroke-width="5" opacity="0.08"/>
      <path id="Path_12693" data-name="Path 12693" d="M-13437.848-15994.473s-120.186,413.744,378.145,282.244,888.2-323.939,1140.3-272.621,422.113,519.586,671.279,407.328,592.133-373.652,864.75-335.164" transform="translate(13338 23369.377)" fill="none" stroke="#fff" stroke-width="5" opacity="0.08"/>
      <path id="Path_12694" data-name="Path 12694" d="M-13437.848-15994.473s-120.186,413.744,378.145,282.244,888.2-323.939,1140.3-272.621,422.113,519.586,671.279,407.328,592.133-373.652,864.75-335.164" transform="translate(13338 23235.988)" fill="none" stroke="#fff" stroke-width="5" opacity="0.08"/>
      <path id="Path_12695" data-name="Path 12695" d="M-13437.848-15994.473s-120.186,413.744,378.145,282.244,888.2-323.939,1140.3-272.621,422.113,519.586,671.279,407.328,592.133-373.652,864.75-335.164" transform="translate(13338 23342.699)" fill="none" stroke="#fff" stroke-width="5" opacity="0.08"/>
      <path id="Path_12696" data-name="Path 12696" d="M-13437.848-15994.473s-120.186,413.744,378.145,282.244,888.2-323.939,1140.3-272.621,422.113,519.586,671.279,407.328,592.133-373.652,864.75-335.164" transform="translate(13338 23289.344)" fill="none" stroke="#fff" stroke-width="5" opacity="0.08"/>
      <path id="Path_12697" data-name="Path 12697" d="M-13437.848-15994.473s-120.186,413.744,378.145,282.244,888.2-323.939,1140.3-272.621,422.113,519.586,671.279,407.328,592.133-373.652,864.75-335.164" transform="translate(13338 23396.055)" fill="none" stroke="#fff" stroke-width="5" opacity="0.08"/>
    </g>
  </g>
</svg>
