<svg xmlns="http://www.w3.org/2000/svg" xmlns:xlink="http://www.w3.org/1999/xlink" width="1292" height="280" viewBox="0 0 1292 280"><defs><clipPath id="a"><path d="M115,0H1292a0,0,0,0,1,0,0V235a45,45,0,0,1-45,45H116A116,116,0,0,1,0,164V115A115,115,0,0,1,115,0Z" transform="translate(140.025 7448.915)" fill="#dbb979"/></clipPath></defs><g transform="translate(-140.025 -7448.914)" clip-path="url(#a)"><g transform="translate(505.43 190.018) rotate(3)"><path d="M-13437.848-15994.473s-120.186,413.744,378.145,282.244,888.2-323.939,1140.3-272.621,422.113,519.586,671.279,407.328,592.133-373.652,864.75-335.164" transform="translate(13338 23195.973)" fill="none" stroke="#fff" stroke-width="5" opacity="0.08"/><path d="M-13437.848-15994.473s-120.186,413.744,378.145,282.244,888.2-323.939,1140.3-272.621,422.113,519.586,671.279,407.328,592.133-373.652,864.75-335.164" transform="translate(13338 23302.684)" fill="none" stroke="#fff" stroke-width="5" opacity="0.08"/><path d="M-13437.848-15994.473s-120.186,413.744,378.145,282.244,888.2-323.939,1140.3-272.621,422.113,519.586,671.279,407.328,592.133-373.652,864.75-335.164" transform="translate(13338 23249.328)" fill="none" stroke="#fff" stroke-width="5" opacity="0.08"/><path d="M-13437.848-15994.473s-120.186,413.744,378.145,282.244,888.2-323.939,1140.3-272.621,422.113,519.586,671.279,407.328,592.133-373.652,864.75-335.164" transform="translate(13338 23356.039)" fill="none" stroke="#fff" stroke-width="5" opacity="0.08"/><path d="M-13437.848-15994.473s-120.186,413.744,378.145,282.244,888.2-323.939,1140.3-272.621,422.113,519.586,671.279,407.328,592.133-373.652,864.75-335.164" transform="translate(13338 23222.65)" fill="none" stroke="#fff" stroke-width="5" opacity="0.08"/><path d="M-13437.848-15994.473s-120.186,413.744,378.145,282.244,888.2-323.939,1140.3-272.621,422.113,519.586,671.279,407.328,592.133-373.652,864.75-335.164" transform="translate(13338 23329.361)" fill="none" stroke="#fff" stroke-width="5" opacity="0.08"/><path d="M-13437.848-15994.473s-120.186,413.744,378.145,282.244,888.2-323.939,1140.3-272.621,422.113,519.586,671.279,407.328,592.133-373.652,864.75-335.164" transform="translate(13338 23276.006)" fill="none" stroke="#fff" stroke-width="5" opacity="0.08"/><path d="M-13437.848-15994.473s-120.186,413.744,378.145,282.244,888.2-323.939,1140.3-272.621,422.113,519.586,671.279,407.328,592.133-373.652,864.75-335.164" transform="translate(13338 23382.717)" fill="none" stroke="#fff" stroke-width="5" opacity="0.08"/><path d="M-13437.848-15994.473s-120.186,413.744,378.145,282.244,888.2-323.939,1140.3-272.621,422.113,519.586,671.279,407.328,592.133-373.652,864.75-335.164" transform="translate(13338 23209.311)" fill="none" stroke="#fff" stroke-width="5" opacity="0.08"/><path d="M-13437.848-15994.473s-120.186,413.744,378.145,282.244,888.2-323.939,1140.3-272.621,422.113,519.586,671.279,407.328,592.133-373.652,864.75-335.164" transform="translate(13338 23316.021)" fill="none" stroke="#fff" stroke-width="5" opacity="0.08"/><path d="M-13437.848-15994.473s-120.186,413.744,378.145,282.244,888.2-323.939,1140.3-272.621,422.113,519.586,671.279,407.328,592.133-373.652,864.75-335.164" transform="translate(13338 23262.666)" fill="none" stroke="#fff" stroke-width="5" opacity="0.08"/><path d="M-13437.848-15994.473s-120.186,413.744,378.145,282.244,888.2-323.939,1140.3-272.621,422.113,519.586,671.279,407.328,592.133-373.652,864.75-335.164" transform="translate(13338 23369.377)" fill="none" stroke="#fff" stroke-width="5" opacity="0.08"/><path d="M-13437.848-15994.473s-120.186,413.744,378.145,282.244,888.2-323.939,1140.3-272.621,422.113,519.586,671.279,407.328,592.133-373.652,864.75-335.164" transform="translate(13338 23235.988)" fill="none" stroke="#fff" stroke-width="5" opacity="0.08"/><path d="M-13437.848-15994.473s-120.186,413.744,378.145,282.244,888.2-323.939,1140.3-272.621,422.113,519.586,671.279,407.328,592.133-373.652,864.75-335.164" transform="translate(13338 23342.699)" fill="none" stroke="#fff" stroke-width="5" opacity="0.08"/><path d="M-13437.848-15994.473s-120.186,413.744,378.145,282.244,888.2-323.939,1140.3-272.621,422.113,519.586,671.279,407.328,592.133-373.652,864.75-335.164" transform="translate(13338 23289.344)" fill="none" stroke="#fff" stroke-width="5" opacity="0.08"/><path d="M-13437.848-15994.473s-120.186,413.744,378.145,282.244,888.2-323.939,1140.3-272.621,422.113,519.586,671.279,407.328,592.133-373.652,864.75-335.164" transform="translate(13338 23396.055)" fill="none" stroke="#fff" stroke-width="5" opacity="0.08"/></g></g></svg>