<svg xmlns="http://www.w3.org/2000/svg" width="71.633" height="12.57" viewBox="0 0 71.633 12.57">
  <g id="Group_123" data-name="Group 123" transform="translate(0 0.5)">
    <path id="Path_2" data-name="Path 2" d="M305.848,3556.988l1.462,2.961a.531.531,0,0,0,.4.29l3.268.475a.529.529,0,0,1,.293.9l-2.365,2.305a.529.529,0,0,0-.152.468l.558,3.255a.529.529,0,0,1-.767.558l-2.923-1.537a.528.528,0,0,0-.492,0l-2.923,1.537a.529.529,0,0,1-.767-.558l.558-3.255a.528.528,0,0,0-.152-.468l-2.365-2.305a.529.529,0,0,1,.293-.9l3.268-.475a.531.531,0,0,0,.4-.29l1.462-2.961A.528.528,0,0,1,305.848,3556.988Z" transform="translate(-299.319 -3556.693)" fill="#ffd500"/>
    <path id="Path_3" data-name="Path 3" d="M339.848,3556.988l1.462,2.961a.531.531,0,0,0,.4.29l3.268.475a.529.529,0,0,1,.293.9l-2.365,2.305a.529.529,0,0,0-.152.468l.558,3.255a.529.529,0,0,1-.767.558l-2.923-1.537a.528.528,0,0,0-.492,0l-2.923,1.537a.529.529,0,0,1-.767-.558l.558-3.255a.528.528,0,0,0-.152-.468l-2.365-2.305a.529.529,0,0,1,.293-.9l3.268-.475a.531.531,0,0,0,.4-.29l1.462-2.961A.528.528,0,0,1,339.848,3556.988Z" transform="translate(-318.438 -3556.693)" fill="#ffd500"/>
    <path id="Path_4" data-name="Path 4" d="M373.848,3556.988l1.462,2.961a.531.531,0,0,0,.4.29l3.268.475a.529.529,0,0,1,.293.9l-2.365,2.305a.529.529,0,0,0-.152.468l.558,3.255a.529.529,0,0,1-.767.558l-2.923-1.537a.528.528,0,0,0-.492,0l-2.923,1.537a.529.529,0,0,1-.767-.558l.558-3.255a.528.528,0,0,0-.152-.468l-2.365-2.305a.529.529,0,0,1,.293-.9l3.268-.475a.531.531,0,0,0,.4-.29l1.462-2.961A.528.528,0,0,1,373.848,3556.988Z" transform="translate(-337.558 -3556.693)" fill="#ffd500"/>
    <path id="Path_5" data-name="Path 5" d="M407.848,3556.988l1.462,2.961a.531.531,0,0,0,.4.29l3.268.475a.529.529,0,0,1,.293.9l-2.365,2.305a.529.529,0,0,0-.152.468l.558,3.255a.529.529,0,0,1-.767.558l-2.923-1.537a.528.528,0,0,0-.492,0l-2.923,1.537a.529.529,0,0,1-.767-.558l.558-3.255a.528.528,0,0,0-.152-.468l-2.365-2.305a.529.529,0,0,1,.293-.9l3.268-.475a.531.531,0,0,0,.4-.29l1.462-2.961A.528.528,0,0,1,407.848,3556.988Z" transform="translate(-356.677 -3556.693)" fill="#ffd500"/>
    <path id="Path_94" data-name="Path 94" d="M441.848,3556.988l1.462,2.961a.531.531,0,0,0,.4.29l3.268.475a.529.529,0,0,1,.293.9l-2.365,2.305a.529.529,0,0,0-.152.468l.558,3.255a.529.529,0,0,1-.767.558l-2.923-1.537a.528.528,0,0,0-.492,0l-2.923,1.537a.529.529,0,0,1-.767-.558l.558-3.255a.528.528,0,0,0-.152-.468l-2.365-2.305a.529.529,0,0,1,.293-.9l3.268-.475a.531.531,0,0,0,.4-.29l1.462-2.961A.528.528,0,0,1,441.848,3556.988Z" transform="translate(-375.797 -3556.693)" fill="#989898"/>
    <path id="Subtraction_1" data-name="Subtraction 1" d="M2.641,11.57a.532.532,0,0,1-.407-.191.519.519,0,0,1-.115-.429L2.677,7.7a.527.527,0,0,0-.151-.469L.16,4.922a.529.529,0,0,1,.293-.9l3.268-.474a.531.531,0,0,0,.4-.29L5.581.294a.529.529,0,0,1,.949,0l.13.263v9.6L6.3,9.971a.527.527,0,0,0-.491,0L2.886,11.508A.525.525,0,0,1,2.641,11.57Z" transform="translate(59.522 0)" fill="#ffd500" stroke="rgba(0,0,0,0)" stroke-miterlimit="10" stroke-width="1"/>
  </g>
</svg>
