<svg id="werde" xmlns="http://www.w3.org/2000/svg" width="63.924" height="45.838" viewBox="0 0 63.924 45.838">
  <path id="Path_12618" data-name="Path 12618" d="M63.277,35.538a1.614,1.614,0,0,0-1.958.006L44.5,48.385,33.448,23.436a1.693,1.693,0,0,0-2.972,0L19.3,48.677,2.628,35.558A1.624,1.624,0,0,0,.11,37.421L11.7,67.356a1.621,1.621,0,0,0,1.513,1.036h37.5a1.613,1.613,0,0,0,1.512-1.036L63.813,37.421A1.62,1.62,0,0,0,63.277,35.538ZM31.964,28.1,41.84,50.412,31.526,58.284,21.94,50.749ZM17.949,51.741l-4.7,10.618L5.277,41.772Zm-2.384,13.4,5.019-11.333,8.276,6.508-6.324,4.825H15.565Zm12.324,0L31.5,62.394,35,65.145Zm12.248-.089-5.977-4.7,9.028-6.89L48.36,65.147H40.243C40.211,65.115,40.176,65.088,40.138,65.056Zm10.544-2.7L45.849,51.438,58.71,41.62Z" transform="translate(0 -22.554)" fill="#dbb979"/>
</svg>
